<svg width="40" height="40" fill="none" xmlns="http://www.w3.org/2000/svg"><circle cx="20" cy="20" r="20" fill="#D93175"/><path d="M20 11.803c2.67 0 2.986.01 4.041.059.975.044 1.504.207 1.857.344.435.16.828.415 1.151.748.332.323.588.716.748 1.15.137.353.3.883.345 1.858.047 1.054.058 1.37.058 4.04s-.01 2.986-.058 4.041c-.045.975-.208 1.504-.345 1.857a3.315 3.315 0 01-1.898 1.898c-.352.136-.882.3-1.856.344-1.055.048-1.371.058-4.041.058-2.67 0-2.987-.01-4.041-.058-.975-.045-1.505-.208-1.857-.345a3.096 3.096 0 01-1.151-.748 3.096 3.096 0 01-.749-1.15c-.137-.353-.3-.883-.344-1.858-.048-1.054-.058-1.37-.058-4.04s.01-2.986.058-4.04c.045-.976.207-1.505.344-1.858.16-.434.416-.828.748-1.15a3.096 3.096 0 011.152-.749c.352-.137.882-.3 1.857-.344 1.054-.048 1.37-.058 4.04-.058l-.001.001zM20.002 10c-2.716 0-3.057.011-4.123.06-1.067.05-1.794.22-2.429.466a4.91 4.91 0 00-1.772 1.154 4.908 4.908 0 00-1.153 1.772c-.247.635-.416 1.363-.465 2.427C10.012 16.943 10 17.285 10 20c0 2.715.011 3.056.06 4.123.05 1.066.218 1.79.465 2.426a4.909 4.909 0 001.153 1.771c.5.509 1.105.903 1.772 1.154.635.247 1.363.416 2.428.465 1.064.048 1.407.06 4.123.06s3.056-.012 4.123-.06c1.067-.05 1.79-.218 2.426-.465a5.112 5.112 0 002.925-2.925c.247-.635.416-1.363.465-2.427.048-1.064.06-1.407.06-4.123s-.012-3.056-.06-4.123c-.05-1.066-.218-1.79-.465-2.425a4.902 4.902 0 00-1.153-1.771 4.91 4.91 0 00-1.772-1.155c-.635-.247-1.363-.416-2.428-.464-1.064-.048-1.406-.06-4.122-.06l.002-.002z" fill="#fff"/><path d="M20 14.866a5.135 5.135 0 100 10.27 5.135 5.135 0 000-10.27zm0 8.469a3.334 3.334 0 110-6.668 3.334 3.334 0 010 6.668zM25.338 15.863a1.2 1.2 0 100-2.4 1.2 1.2 0 000 2.4z" fill="#fff"/></svg>