<svg width="40" height="40" fill="none" xmlns="http://www.w3.org/2000/svg"><circle cx="20" cy="20" r="20" fill="#1DA1F2"/><path d="M15.92 29c8.301 0 12.842-6.923 12.842-12.925 0-.196-.005-.392-.014-.587A9.23 9.23 0 0031 13.132a9.002 9.002 0 01-2.592.715 4.552 4.552 0 001.983-2.513 9.009 9.009 0 01-2.865 1.103 4.49 4.49 0 00-5.427-.898 4.534 4.534 0 00-1.983 2.134 4.572 4.572 0 00-.282 2.91c-1.794-.09-3.55-.56-5.153-1.378a12.829 12.829 0 01-4.15-3.369 4.572 4.572 0 00-.495 3.31 4.546 4.546 0 001.891 2.755 4.45 4.45 0 01-2.044-.566v.059c0 1.049.361 2.065 1.022 2.877a4.511 4.511 0 002.6 1.576 4.474 4.474 0 01-2.04.078c.29.902.85 1.69 1.605 2.256.756.566 1.667.88 2.609.9a9.02 9.02 0 01-5.602 1.941c-.36 0-.72-.02-1.077-.062A12.722 12.722 0 0015.92 29" fill="#fff"/></svg>