<svg width="40" height="40" fill="none" xmlns="http://www.w3.org/2000/svg"><circle cx="20" cy="20" r="20" fill="red"/><path d="M30.56 15.342a2.685 2.685 0 00-.678-1.199 2.631 2.631 0 00-1.178-.695C27.062 13 20.5 13 20.5 13s-6.563 0-8.204.448a2.631 2.631 0 00-1.178.695c-.326.333-.56.746-.679 1.199C10 17.014 10 20.5 10 20.5s0 3.486.44 5.158c.118.453.352.866.678 1.199.325.332.732.572 1.178.695C13.938 28 20.5 28 20.5 28s6.563 0 8.204-.448a2.631 2.631 0 001.178-.695c.326-.333.56-.746.679-1.199C31 23.986 31 20.5 31 20.5s0-3.486-.44-5.158z" fill="#fff"/><path d="M18.352 23.666l5.489-3.166-5.489-3.166v6.332z" fill="red"/></svg>